<?xml version="1.0" encoding="UTF-8" standalone="no"?>
<!-- Created with Inkscape (http://www.inkscape.org/) -->

<svg
   width="26.67536mm"
   height="26.64077mm"
   viewBox="0 0 26.67536 26.64077"
   version="1.1"
   id="svg1"
   xml:space="preserve"
   inkscape:version="1.3.2 (091e20e, 2023-11-25, custom)"
   sodipodi:docname="logo_vector_drawing.svg"
   xmlns:inkscape="http://www.inkscape.org/namespaces/inkscape"
   xmlns:sodipodi="http://sodipodi.sourceforge.net/DTD/sodipodi-0.dtd"
   xmlns:xlink="http://www.w3.org/1999/xlink"
   xmlns="http://www.w3.org/2000/svg"
   xmlns:svg="http://www.w3.org/2000/svg"><sodipodi:namedview
     id="namedview1"
     pagecolor="#ffffff"
     bordercolor="#000000"
     borderopacity="0.25"
     inkscape:showpageshadow="2"
     inkscape:pageopacity="0.0"
     inkscape:pagecheckerboard="0"
     inkscape:deskcolor="#d1d1d1"
     inkscape:document-units="mm"
     showgrid="true"
     inkscape:zoom="2.1683361"
     inkscape:cx="42.428847"
     inkscape:cy="94.311947"
     inkscape:window-width="2560"
     inkscape:window-height="1494"
     inkscape:window-x="-11"
     inkscape:window-y="-11"
     inkscape:window-maximized="1"
     inkscape:current-layer="layer1"
     inkscape:clip-to-page="false"><inkscape:grid
       id="grid1"
       units="mm"
       originx="-16.946243"
       originy="-13.043499"
       spacingx="0.99999998"
       spacingy="1"
       empcolor="#0099e5"
       empopacity="0.30196078"
       color="#0099e5"
       opacity="0.14901961"
       empspacing="5"
       dotted="false"
       gridanglex="30"
       gridanglez="30"
       visible="true" /></sodipodi:namedview><defs
     id="defs1"><linearGradient
       id="linearGradient8"
       inkscape:collect="always"><stop
         style="stop-color:#1e426b;stop-opacity:1;"
         offset="0"
         id="stop9" /><stop
         style="stop-color:#3677c2;stop-opacity:1;"
         offset="1"
         id="stop8" /></linearGradient><linearGradient
       id="linearGradient6"
       inkscape:collect="always"><stop
         style="stop-color:#6b6b6b;stop-opacity:1;"
         offset="0"
         id="stop6" /><stop
         style="stop-color:#4d4d4d;stop-opacity:1;"
         offset="1"
         id="stop7" /></linearGradient><linearGradient
       id="linearGradient2"><stop
         style="stop-color:#898989;stop-opacity:1;"
         offset="0"
         id="stop4" /><stop
         style="stop-color:#545454;stop-opacity:1;"
         offset="1"
         id="stop5" /></linearGradient><rect
       x="161.09622"
       y="84.787483"
       width="258.27573"
       height="250.12308"
       id="rect1" /><rect
       x="161.09622"
       y="84.787483"
       width="258.27573"
       height="250.12308"
       id="rect1-4" /><linearGradient
       inkscape:collect="always"
       xlink:href="#linearGradient2"
       id="linearGradient3"
       x1="23.164301"
       y1="13.074922"
       x2="22.887482"
       y2="39.675579"
       gradientUnits="userSpaceOnUse"
       spreadMethod="pad" /><linearGradient
       inkscape:collect="always"
       xlink:href="#linearGradient6"
       id="linearGradient7"
       x1="37.46056"
       y1="13.178308"
       x2="37.338539"
       y2="39.534924"
       gradientUnits="userSpaceOnUse" /><radialGradient
       inkscape:collect="always"
       xlink:href="#linearGradient8"
       id="radialGradient9"
       cx="5.1984563"
       cy="21.928673"
       fx="5.1984563"
       fy="21.928673"
       r="13.309019"
       gradientTransform="matrix(-0.34780065,-0.23759145,0.37281134,-0.54574369,17.086616,32.361441)"
       gradientUnits="userSpaceOnUse" /></defs><g
     inkscape:label="Layer 1"
     inkscape:groupmode="layer"
     id="layer1"
     transform="translate(-16.946243,-13.043499)"><path
       style="fill:url(#radialGradient9);fill-opacity:1;stroke-width:0.264583"
       d="m 16.978026,22.552219 3.494426,-3.71013 5.780901,0.0863 4.05526,-4.57295 4.01235,4.56054 5.9101,0.005 3.365,3.71753 -1.72564,1.81193 -1.4668,-1.89821 h -7.2477 l -1.85506,-1.76878 h -1.89821 l -1.76878,1.76878 -7.075138,-0.12942 -1.811925,2.02763 z"
       id="path1"
       sodipodi:nodetypes="cccccccccccccccc"
       inkscape:export-filename="path1.png"
       inkscape:export-xdpi="304.70065"
       inkscape:export-ydpi="304.70065" /><path
       style="fill:#3677c2;fill-opacity:1;stroke-width:0.264583"
       d="m 16.946243,30.239729 3.494426,3.71013 5.780904,-0.0863 4.05526,4.57295 4.01235,-4.56054 5.9101,-0.005 3.365,-3.71753 -1.72564,-1.81193 -1.4668,1.89821 h -7.2477 l -1.85506,1.76878 h -1.89821 l -1.76878,-1.76878 -7.075141,0.12942 -1.811925,-2.02763 z"
       id="path1-3"
       sodipodi:nodetypes="cccccccccccccccc" /><path
       style="fill:url(#linearGradient3);fill-opacity:1;stroke-width:0.264583"
       d="m 26.602273,13.066229 -3.710133,3.49443 0.08628,5.7809 -4.572952,4.05526 4.560541,4.01235 0.005,5.9101 3.717534,3.365 1.81192,-1.72564 -1.89821,-1.4668 v -7.2477 l -1.76878,-1.85506 v -1.89821 l 1.76878,-1.76878 -0.12942,-7.07514 2.02763,-1.81192 z"
       id="path1-3-2"
       sodipodi:nodetypes="cccccccccccccccc" /><path
       style="fill:url(#linearGradient7);fill-opacity:1;stroke-width:0.264583"
       d="m 34.155923,13.043499 3.71013,3.49443 -0.0863,5.7809 4.57295,4.05526 -4.56054,4.01235 -0.005,5.9101 -3.71753,3.365 -1.81192,-1.72564 1.89821,-1.4668 v -7.2477 l 1.76878,-1.85506 v -1.89821 l -1.76878,-1.76878 0.12942,-7.07514 -2.02763,-1.81192 z"
       id="path1-3-2-1"
       sodipodi:nodetypes="cccccccccccccccc" /><path
       d="m 30.383113,38.328509 v -6.37688 h -0.95085 l -1.76888,-1.76888 -7.075023,0.12971 -1.812292,-2.02778 -1.768368,1.89807 3.49436,3.71037 5.780523,-0.0863 4.05557,4.57285 z"
       style="fill:#3677c2;stroke-width:0.264583"
       id="path2" /><path
       d="m 30.246193,14.426129 v 6.37687 h 0.95085 l 1.76888,1.76889 7.07502,-0.12971 1.81229,2.02778 1.76837,-1.89807 -3.49436,-3.71037 -5.78052,0.0863 -4.05557,-4.57285 z"
       style="fill:#3677c2;stroke-width:0.264583"
       id="path2-3" /></g></svg>
