<?xml version="1.0" encoding="UTF-8" standalone="no"?>
<!-- Created with Inkscape (http://www.inkscape.org/) -->

<svg
   width="107.90556mm"
   height="124.5986mm"
   viewBox="0 0 107.90556 124.5986"
   version="1.1"
   id="svg1"
   xmlns="http://www.w3.org/2000/svg"
   xmlns:svg="http://www.w3.org/2000/svg">
  <defs
     id="defs1" />
  <g
     id="layer1"
     transform="translate(-48.085439,-68.350347)">
    <path
       id="path15"
       style="fill:#5ba4ff;fill-opacity:1;stroke-width:0.264583"
       d="m 102.03822,68.35035 -53.952783,31.14952 41.941326,24.21488 3.417842,1.97311 a 3.5805732,3.5805732 59.998865 0 1 1.790409,3.10094 l 0,60.23222 6.803206,3.92793 6.80372,-3.92793 v -60.20568 a 3.6268474,3.6268474 119.99904 0 1 1.81332,-3.14088 l 3.39405,-1.95971 41.94169,-24.21488 z" />
    <path
       id="path16"
       style="fill:#5c5c5c;fill-opacity:1;stroke-width:0.264583"
       d="m 155.991,101.08737 -45.35848,26.18755 v 13.69529 L 155.991,114.78266 Z m 0,16.24035 -45.35848,26.18755 v 13.24415 L 155.991,130.57187 Z m 0,15.78922 -45.35848,26.18755 v 13.24363 L 155.991,146.36058 Z m 0,15.7887 -45.35848,26.18755 v 12.89379 L 155.991,161.79943 Z" />
    <path
       id="path17"
       style="fill:#bababa;fill-opacity:1;stroke-width:0.264583"
       d="m 48.085437,101.08737 v 13.69529 l 45.358988,26.18806 v -13.69528 z m 0,16.24035 v 13.24415 l 45.358988,26.18807 v -13.24415 z m 0,15.78922 v 13.24364 l 45.358988,26.18806 V 159.305 Z m 0,15.7887 v 12.89379 l 45.358988,26.18806 v -12.89378 z" />
  </g>
</svg>
